<svg width="2931" height="2931" xmlns="http://www.w3.org/2000/svg">

    <g>
        <title>Layer 1</title>
        <rect id="svg_4" height="1553.33335" width="2113.33336" y="720" x="446"
              stroke="#000" fill="#000000"/>
        <path id="svg_1" fill="#2ebd59"
              d="m1465.5,0c-809.4,0 -1465.5,656.1 -1465.5,1465.5s656.1,1465.5 1465.5,1465.5s1465.5,-656.1 1465.5,-1465.5c0,-809.3 -656.1,-1465.4 -1465.5,-1465.5zm672.1,2113.6c-26.3,43.2 -82.6,56.7 -125.6,30.4c-344.1,-210.3 -777.3,-257.8 -1287.4,-141.3c-49.2,11.3 -98.2,-19.5 -109.4,-68.7c-11.3,-49.2 19.4,-98.2 68.7,-109.4c558.2,-127.5 1037.1,-72.6 1423.4,163.4c43,26.5 56.7,82.6 30.3,125.6zm179.3,-398.9c-33.1,53.8 -103.5,70.6 -157.2,37.6c-393.8,-242.1 -994.4,-312.2 -1460.3,-170.8c-60.4,18.3 -124.2,-15.8 -142.6,-76.1c-18.2,-60.4 15.9,-124.1 76.2,-142.5c532.2,-161.5 1193.9,-83.3 1646.2,194.7c53.8,33.1 70.8,103.4 37.7,157.1zm15.4,-415.6c-472.4,-280.5 -1251.6,-306.3 -1702.6,-169.5c-72.4,22 -149,-18.9 -170.9,-91.3c-21.9,-72.4 18.9,-149 91.4,-171c517.7,-157.1 1378.2,-126.8 1922,196c65.1,38.7 86.5,122.8 47.9,187.8c-38.5,65.2 -122.8,86.7 -187.8,48z"
              class="st0"/>
        <path d="m938.83344,907.83337c6.66669,0 20,0 26.66669,0c20,0 40,0 60,0c20,0 33.33325,0 53.33325,0c13.33337,0 27.90674,-2.04956 40,6.66669c7.64856,5.5127 13.33337,6.66663 20,13.33331l0,0"
              id="svg_2" stroke="#000" fill="none"/>
    </g>
</svg>